# xmcd
#
# Track frame offsets: 
#        150
#        13781
#        28604
#        41912
#        55091
#        69375
#        81734
#        96200
#        111005
#        123985
#        135244
#        148536
#        164024
#        177056
#        192500
#        206227
#        220456
#        233949
#        247629
#        261591
#        274840
#        289999
#        304308
#        316992
#
# Disc length: 4398 seconds
#
# Revision: 0
# Processed by: cddbd v1.5.2PL0 Copyright (c) Steve Scherf et al.
# Submitted via: ExactAudioCopy v1.0b3
#
DISCID=73112c18
DTITLE=Sara Martin - In Chronological Order Vol. 1 (1922-1923)
DYEAR=1995
DGENRE=Blues
TTITLE0=Sugar Blues
TTITLE1=Achin' Hearted Blues
TTITLE2=Keeps On A-Rainin' (Papa, He Can't Make No Time)
TTITLE3=Joe Turner Blues
TTITLE4=Michigan Water Blues
TTITLE5=If Your Man Is Like My Man (I Sympathise With You)
TTITLE6=I Got What It Takes To Bring You Back
TTITLE7=Original Blues
TTITLE8=Come Home Papa Blues
TTITLE9=It Takes A Long Time To Get 'Em But You Can Lose 'Em Overnight
TTITLE10=Laughin' Cryin' Blues
TTITLE11=Cruel Backbitin' Blues
TTITLE12=Leave My Sweet Daddy Alone
TTITLE13=Monkey Man Blues (with Clarence Williams)
TTITLE14=Yodeling Blues (with Eva Taylor)
TTITLE15=Where Can That Someone Be?
TTITLE16=Just Thinkin' Blues
TTITLE17=If You Don't Like It, Leave
TTITLE18=Nobody In Town Can Bake A Sweet Jelly Roll Like Mine
TTITLE19=That Free And Easy Papa O' Mine (with Eva Taylor)
TTITLE20=Hesitation Blues (with Eva Taylor)
TTITLE21=Tired O' Waitin' Blues
TTITLE22=You Just Can't Have No One Man By Yourself
TTITLE23=Goin' Down To The Levee
EXTD=
EXTT0=
EXTT1=
EXTT2=
EXTT3=
EXTT4=
EXTT5=
EXTT6=
EXTT7=
EXTT8=
EXTT9=
EXTT10=
EXTT11=
EXTT12=
EXTT13=
EXTT14=
EXTT15=
EXTT16=
EXTT17=
EXTT18=
EXTT19=
EXTT20=
EXTT21=
EXTT22=
EXTT23=
PLAYORDER=
